<mxfile host="app.diagrams.net" modified="2021-08-17T07:21:32.138Z" agent="5.0 (Macintosh; Intel Mac OS X 10_15_7) AppleWebKit/537.36 (KHTML, like Gecko) Chrome/92.0.4515.131 Safari/537.36" etag="DyEZqg2ZCmU0XE8eeYR0" version="14.9.7" type="github">
  <diagram id="Ei_98F6-wZy6i1Wbnxk8" name="Page-1">
    <mxGraphModel dx="1186" dy="1909" grid="1" gridSize="10" guides="1" tooltips="1" connect="1" arrows="1" fold="1" page="1" pageScale="1" pageWidth="827" pageHeight="1169" math="0" shadow="0">
      <root>
        <mxCell id="0" />
        <mxCell id="1" parent="0" />
        <mxCell id="a998x2-pHR5n2TYyz1GJ-13" style="edgeStyle=orthogonalEdgeStyle;rounded=0;orthogonalLoop=1;jettySize=auto;html=1;exitX=0.5;exitY=0;exitDx=0;exitDy=0;entryX=0.5;entryY=1;entryDx=0;entryDy=0;" parent="1" source="a998x2-pHR5n2TYyz1GJ-1" target="a998x2-pHR5n2TYyz1GJ-12" edge="1">
          <mxGeometry relative="1" as="geometry" />
        </mxCell>
        <mxCell id="a998x2-pHR5n2TYyz1GJ-14" value="__proto__" style="edgeLabel;html=1;align=center;verticalAlign=middle;resizable=0;points=[];" parent="a998x2-pHR5n2TYyz1GJ-13" vertex="1" connectable="0">
          <mxGeometry x="0.075" y="3" relative="1" as="geometry">
            <mxPoint x="3" y="18" as="offset" />
          </mxGeometry>
        </mxCell>
        <mxCell id="lpQGn5M653DhICiuYvtT-4" style="edgeStyle=orthogonalEdgeStyle;rounded=0;orthogonalLoop=1;jettySize=auto;html=1;exitX=0;exitY=0.5;exitDx=0;exitDy=0;entryX=0.429;entryY=1.1;entryDx=0;entryDy=0;entryPerimeter=0;" edge="1" parent="1" source="a998x2-pHR5n2TYyz1GJ-1" target="lpQGn5M653DhICiuYvtT-29">
          <mxGeometry relative="1" as="geometry">
            <mxPoint x="103" y="40" as="targetPoint" />
          </mxGeometry>
        </mxCell>
        <mxCell id="lpQGn5M653DhICiuYvtT-5" value="prototype" style="edgeLabel;html=1;align=center;verticalAlign=middle;resizable=0;points=[];" vertex="1" connectable="0" parent="lpQGn5M653DhICiuYvtT-4">
          <mxGeometry x="-0.5372" relative="1" as="geometry">
            <mxPoint x="-10" y="-2" as="offset" />
          </mxGeometry>
        </mxCell>
        <mxCell id="lpQGn5M653DhICiuYvtT-25" style="edgeStyle=orthogonalEdgeStyle;rounded=0;orthogonalLoop=1;jettySize=auto;html=1;exitX=1;exitY=1;exitDx=0;exitDy=0;entryX=1;entryY=0;entryDx=0;entryDy=0;" edge="1" parent="1" source="a998x2-pHR5n2TYyz1GJ-1" target="a998x2-pHR5n2TYyz1GJ-2">
          <mxGeometry relative="1" as="geometry" />
        </mxCell>
        <mxCell id="lpQGn5M653DhICiuYvtT-26" value="constructor" style="edgeLabel;html=1;align=center;verticalAlign=middle;resizable=0;points=[];" vertex="1" connectable="0" parent="lpQGn5M653DhICiuYvtT-25">
          <mxGeometry x="-0.6144" y="2" relative="1" as="geometry">
            <mxPoint y="-11" as="offset" />
          </mxGeometry>
        </mxCell>
        <mxCell id="a998x2-pHR5n2TYyz1GJ-1" value="初始原型&lt;b&gt;对象&lt;/b&gt;" style="ellipse;whiteSpace=wrap;html=1;aspect=fixed;" parent="1" vertex="1">
          <mxGeometry x="150" y="90" width="80" height="80" as="geometry" />
        </mxCell>
        <mxCell id="lpQGn5M653DhICiuYvtT-1" style="edgeStyle=orthogonalEdgeStyle;rounded=0;orthogonalLoop=1;jettySize=auto;html=1;exitX=1;exitY=1;exitDx=0;exitDy=0;entryX=0;entryY=0.5;entryDx=0;entryDy=0;" edge="1" parent="1" source="a998x2-pHR5n2TYyz1GJ-2" target="a998x2-pHR5n2TYyz1GJ-3">
          <mxGeometry relative="1" as="geometry" />
        </mxCell>
        <mxCell id="lpQGn5M653DhICiuYvtT-2" value="constructor" style="edgeLabel;html=1;align=center;verticalAlign=middle;resizable=0;points=[];" vertex="1" connectable="0" parent="lpQGn5M653DhICiuYvtT-1">
          <mxGeometry x="-0.7244" y="3" relative="1" as="geometry">
            <mxPoint x="12" as="offset" />
          </mxGeometry>
        </mxCell>
        <mxCell id="lpQGn5M653DhICiuYvtT-27" style="edgeStyle=orthogonalEdgeStyle;rounded=0;orthogonalLoop=1;jettySize=auto;html=1;exitX=0;exitY=0;exitDx=0;exitDy=0;entryX=0;entryY=1;entryDx=0;entryDy=0;" edge="1" parent="1" source="a998x2-pHR5n2TYyz1GJ-2" target="a998x2-pHR5n2TYyz1GJ-1">
          <mxGeometry relative="1" as="geometry" />
        </mxCell>
        <mxCell id="lpQGn5M653DhICiuYvtT-28" value="prototype" style="edgeLabel;html=1;align=center;verticalAlign=middle;resizable=0;points=[];" vertex="1" connectable="0" parent="lpQGn5M653DhICiuYvtT-27">
          <mxGeometry x="-0.651" y="3" relative="1" as="geometry">
            <mxPoint as="offset" />
          </mxGeometry>
        </mxCell>
        <mxCell id="lpQGn5M653DhICiuYvtT-34" style="edgeStyle=orthogonalEdgeStyle;rounded=0;orthogonalLoop=1;jettySize=auto;html=1;exitX=1;exitY=0.5;exitDx=0;exitDy=0;entryX=0;entryY=0.5;entryDx=0;entryDy=0;" edge="1" parent="1" source="a998x2-pHR5n2TYyz1GJ-2" target="a998x2-pHR5n2TYyz1GJ-16">
          <mxGeometry relative="1" as="geometry">
            <Array as="points">
              <mxPoint x="310" y="380" />
              <mxPoint x="310" y="130" />
            </Array>
          </mxGeometry>
        </mxCell>
        <mxCell id="lpQGn5M653DhICiuYvtT-35" value="__proto__" style="edgeLabel;html=1;align=center;verticalAlign=middle;resizable=0;points=[];" vertex="1" connectable="0" parent="lpQGn5M653DhICiuYvtT-34">
          <mxGeometry x="-0.9071" y="2" relative="1" as="geometry">
            <mxPoint x="14" y="-8" as="offset" />
          </mxGeometry>
        </mxCell>
        <mxCell id="a998x2-pHR5n2TYyz1GJ-2" value="Object()&lt;br&gt;构造&lt;b&gt;函数&lt;/b&gt;" style="ellipse;whiteSpace=wrap;html=1;aspect=fixed;" parent="1" vertex="1">
          <mxGeometry x="150" y="340" width="80" height="80" as="geometry" />
        </mxCell>
        <mxCell id="lpQGn5M653DhICiuYvtT-18" style="edgeStyle=orthogonalEdgeStyle;rounded=0;orthogonalLoop=1;jettySize=auto;html=1;exitX=1;exitY=0;exitDx=0;exitDy=0;entryX=1;entryY=1;entryDx=0;entryDy=0;" edge="1" parent="1" source="a998x2-pHR5n2TYyz1GJ-3" target="a998x2-pHR5n2TYyz1GJ-16">
          <mxGeometry relative="1" as="geometry" />
        </mxCell>
        <mxCell id="lpQGn5M653DhICiuYvtT-20" value="prototype" style="edgeLabel;html=1;align=center;verticalAlign=middle;resizable=0;points=[];" vertex="1" connectable="0" parent="lpQGn5M653DhICiuYvtT-18">
          <mxGeometry x="-0.7274" y="-4" relative="1" as="geometry">
            <mxPoint y="-5" as="offset" />
          </mxGeometry>
        </mxCell>
        <mxCell id="lpQGn5M653DhICiuYvtT-23" style="edgeStyle=orthogonalEdgeStyle;rounded=0;orthogonalLoop=1;jettySize=auto;html=1;exitX=1;exitY=1;exitDx=0;exitDy=0;entryX=0;entryY=1;entryDx=0;entryDy=0;" edge="1" parent="1" source="a998x2-pHR5n2TYyz1GJ-3" target="a998x2-pHR5n2TYyz1GJ-3">
          <mxGeometry relative="1" as="geometry">
            <mxPoint x="678" y="560" as="targetPoint" />
            <Array as="points">
              <mxPoint x="608" y="500" />
              <mxPoint x="552" y="500" />
            </Array>
          </mxGeometry>
        </mxCell>
        <mxCell id="lpQGn5M653DhICiuYvtT-24" value="constructor" style="edgeLabel;html=1;align=center;verticalAlign=middle;resizable=0;points=[];" vertex="1" connectable="0" parent="lpQGn5M653DhICiuYvtT-23">
          <mxGeometry x="0.05" y="-2" relative="1" as="geometry">
            <mxPoint x="35" y="-38" as="offset" />
          </mxGeometry>
        </mxCell>
        <mxCell id="lpQGn5M653DhICiuYvtT-31" style="edgeStyle=orthogonalEdgeStyle;rounded=0;orthogonalLoop=1;jettySize=auto;html=1;exitX=0;exitY=0;exitDx=0;exitDy=0;entryX=0;entryY=1;entryDx=0;entryDy=0;" edge="1" parent="1" source="a998x2-pHR5n2TYyz1GJ-3" target="a998x2-pHR5n2TYyz1GJ-16">
          <mxGeometry relative="1" as="geometry" />
        </mxCell>
        <mxCell id="lpQGn5M653DhICiuYvtT-32" value="__proto__" style="edgeLabel;html=1;align=center;verticalAlign=middle;resizable=0;points=[];" vertex="1" connectable="0" parent="lpQGn5M653DhICiuYvtT-31">
          <mxGeometry x="-0.7388" relative="1" as="geometry">
            <mxPoint y="-6" as="offset" />
          </mxGeometry>
        </mxCell>
        <mxCell id="a998x2-pHR5n2TYyz1GJ-3" value="Function()&lt;br&gt;构造&lt;b&gt;函数&lt;/b&gt;" style="ellipse;whiteSpace=wrap;html=1;aspect=fixed;" parent="1" vertex="1">
          <mxGeometry x="540" y="340" width="80" height="80" as="geometry" />
        </mxCell>
        <mxCell id="a998x2-pHR5n2TYyz1GJ-12" value="null" style="ellipse;whiteSpace=wrap;html=1;aspect=fixed;" parent="1" vertex="1">
          <mxGeometry x="150" y="-60" width="80" height="80" as="geometry" />
        </mxCell>
        <mxCell id="lpQGn5M653DhICiuYvtT-7" style="edgeStyle=orthogonalEdgeStyle;rounded=0;orthogonalLoop=1;jettySize=auto;html=1;exitX=0.038;exitY=0.713;exitDx=0;exitDy=0;exitPerimeter=0;entryX=0.038;entryY=0.288;entryDx=0;entryDy=0;entryPerimeter=0;" edge="1" parent="1" source="a998x2-pHR5n2TYyz1GJ-16" target="a998x2-pHR5n2TYyz1GJ-3">
          <mxGeometry relative="1" as="geometry">
            <mxPoint x="680" y="300" as="targetPoint" />
            <Array as="points">
              <mxPoint x="420" y="147" />
              <mxPoint x="420" y="363" />
            </Array>
          </mxGeometry>
        </mxCell>
        <mxCell id="lpQGn5M653DhICiuYvtT-8" value="constructor" style="edgeLabel;html=1;align=center;verticalAlign=middle;resizable=0;points=[];" vertex="1" connectable="0" parent="lpQGn5M653DhICiuYvtT-7">
          <mxGeometry x="-0.8732" y="-1" relative="1" as="geometry">
            <mxPoint x="-34" y="-1" as="offset" />
          </mxGeometry>
        </mxCell>
        <mxCell id="lpQGn5M653DhICiuYvtT-10" style="edgeStyle=orthogonalEdgeStyle;rounded=0;orthogonalLoop=1;jettySize=auto;html=1;exitX=0;exitY=0;exitDx=0;exitDy=0;entryX=1;entryY=0;entryDx=0;entryDy=0;" edge="1" parent="1" source="a998x2-pHR5n2TYyz1GJ-16" target="a998x2-pHR5n2TYyz1GJ-1">
          <mxGeometry relative="1" as="geometry" />
        </mxCell>
        <mxCell id="lpQGn5M653DhICiuYvtT-11" value="__proto__" style="edgeLabel;html=1;align=center;verticalAlign=middle;resizable=0;points=[];" vertex="1" connectable="0" parent="lpQGn5M653DhICiuYvtT-10">
          <mxGeometry x="-0.3" y="-2" relative="1" as="geometry">
            <mxPoint as="offset" />
          </mxGeometry>
        </mxCell>
        <mxCell id="lpQGn5M653DhICiuYvtT-14" style="edgeStyle=orthogonalEdgeStyle;rounded=0;orthogonalLoop=1;jettySize=auto;html=1;exitX=1;exitY=0;exitDx=0;exitDy=0;entryX=0.529;entryY=1.05;entryDx=0;entryDy=0;entryPerimeter=0;" edge="1" parent="1" source="a998x2-pHR5n2TYyz1GJ-16" target="lpQGn5M653DhICiuYvtT-13">
          <mxGeometry relative="1" as="geometry" />
        </mxCell>
        <mxCell id="lpQGn5M653DhICiuYvtT-15" value="prototype" style="edgeLabel;html=1;align=center;verticalAlign=middle;resizable=0;points=[];" vertex="1" connectable="0" parent="lpQGn5M653DhICiuYvtT-14">
          <mxGeometry x="-0.502" relative="1" as="geometry">
            <mxPoint x="17" y="-2" as="offset" />
          </mxGeometry>
        </mxCell>
        <mxCell id="a998x2-pHR5n2TYyz1GJ-16" value="fn( )&lt;br&gt;[nattive code]" style="ellipse;whiteSpace=wrap;html=1;aspect=fixed;" parent="1" vertex="1">
          <mxGeometry x="540" y="90" width="80" height="80" as="geometry" />
        </mxCell>
        <mxCell id="lpQGn5M653DhICiuYvtT-13" value="undefined" style="text;html=1;align=center;verticalAlign=middle;resizable=0;points=[];autosize=1;strokeColor=none;" vertex="1" parent="1">
          <mxGeometry x="680" y="20" width="70" height="20" as="geometry" />
        </mxCell>
        <mxCell id="lpQGn5M653DhICiuYvtT-29" value="undefined" style="text;html=1;align=center;verticalAlign=middle;resizable=0;points=[];autosize=1;strokeColor=none;" vertex="1" parent="1">
          <mxGeometry x="30" y="40" width="70" height="20" as="geometry" />
        </mxCell>
        <mxCell id="lpQGn5M653DhICiuYvtT-36" style="edgeStyle=orthogonalEdgeStyle;rounded=0;orthogonalLoop=1;jettySize=auto;html=1;exitX=0.5;exitY=0;exitDx=0;exitDy=0;" edge="1" parent="1" source="lpQGn5M653DhICiuYvtT-33" target="a998x2-pHR5n2TYyz1GJ-2">
          <mxGeometry relative="1" as="geometry" />
        </mxCell>
        <mxCell id="lpQGn5M653DhICiuYvtT-37" value="constructor" style="edgeLabel;html=1;align=center;verticalAlign=middle;resizable=0;points=[];" vertex="1" connectable="0" parent="lpQGn5M653DhICiuYvtT-36">
          <mxGeometry x="-0.584" relative="1" as="geometry">
            <mxPoint as="offset" />
          </mxGeometry>
        </mxCell>
        <mxCell id="lpQGn5M653DhICiuYvtT-38" style="edgeStyle=orthogonalEdgeStyle;rounded=0;orthogonalLoop=1;jettySize=auto;html=1;exitX=0;exitY=0.5;exitDx=0;exitDy=0;entryX=0.013;entryY=0.675;entryDx=0;entryDy=0;entryPerimeter=0;" edge="1" parent="1" source="lpQGn5M653DhICiuYvtT-33" target="a998x2-pHR5n2TYyz1GJ-1">
          <mxGeometry relative="1" as="geometry">
            <Array as="points">
              <mxPoint x="70" y="585" />
              <mxPoint x="70" y="144" />
            </Array>
          </mxGeometry>
        </mxCell>
        <mxCell id="lpQGn5M653DhICiuYvtT-39" value="__proto__" style="edgeLabel;html=1;align=center;verticalAlign=middle;resizable=0;points=[];" vertex="1" connectable="0" parent="lpQGn5M653DhICiuYvtT-38">
          <mxGeometry x="-0.8704" y="-1" relative="1" as="geometry">
            <mxPoint y="1" as="offset" />
          </mxGeometry>
        </mxCell>
        <mxCell id="lpQGn5M653DhICiuYvtT-48" style="edgeStyle=orthogonalEdgeStyle;rounded=0;orthogonalLoop=1;jettySize=auto;html=1;exitX=1;exitY=0.5;exitDx=0;exitDy=0;entryX=0.457;entryY=0.95;entryDx=0;entryDy=0;entryPerimeter=0;" edge="1" parent="1" source="lpQGn5M653DhICiuYvtT-33" target="lpQGn5M653DhICiuYvtT-49">
          <mxGeometry relative="1" as="geometry">
            <mxPoint x="300" y="540" as="targetPoint" />
          </mxGeometry>
        </mxCell>
        <mxCell id="lpQGn5M653DhICiuYvtT-50" value="prototype" style="edgeLabel;html=1;align=center;verticalAlign=middle;resizable=0;points=[];" vertex="1" connectable="0" parent="lpQGn5M653DhICiuYvtT-48">
          <mxGeometry x="-0.5625" relative="1" as="geometry">
            <mxPoint x="12" as="offset" />
          </mxGeometry>
        </mxCell>
        <mxCell id="lpQGn5M653DhICiuYvtT-33" value="obj 实例&lt;br&gt;new Objcet()&lt;br&gt;或&lt;br&gt;obj = {}" style="ellipse;whiteSpace=wrap;html=1;aspect=fixed;" vertex="1" parent="1">
          <mxGeometry x="150" y="545" width="80" height="80" as="geometry" />
        </mxCell>
        <mxCell id="lpQGn5M653DhICiuYvtT-49" value="undefined" style="text;html=1;align=center;verticalAlign=middle;resizable=0;points=[];autosize=1;strokeColor=none;" vertex="1" parent="1">
          <mxGeometry x="290" y="510" width="70" height="20" as="geometry" />
        </mxCell>
        <mxCell id="lpQGn5M653DhICiuYvtT-53" style="edgeStyle=orthogonalEdgeStyle;rounded=0;orthogonalLoop=1;jettySize=auto;html=1;exitX=1;exitY=0;exitDx=0;exitDy=0;entryX=1;entryY=0.5;entryDx=0;entryDy=0;" edge="1" parent="1" source="lpQGn5M653DhICiuYvtT-51" target="a998x2-pHR5n2TYyz1GJ-3">
          <mxGeometry relative="1" as="geometry">
            <Array as="points">
              <mxPoint x="710" y="557" />
              <mxPoint x="710" y="380" />
            </Array>
          </mxGeometry>
        </mxCell>
        <mxCell id="lpQGn5M653DhICiuYvtT-54" value="constructor" style="edgeLabel;html=1;align=center;verticalAlign=middle;resizable=0;points=[];" vertex="1" connectable="0" parent="lpQGn5M653DhICiuYvtT-53">
          <mxGeometry x="-0.8456" y="2" relative="1" as="geometry">
            <mxPoint x="17" y="-5" as="offset" />
          </mxGeometry>
        </mxCell>
        <mxCell id="lpQGn5M653DhICiuYvtT-55" style="edgeStyle=orthogonalEdgeStyle;rounded=0;orthogonalLoop=1;jettySize=auto;html=1;exitX=1;exitY=0.5;exitDx=0;exitDy=0;entryX=1;entryY=0.5;entryDx=0;entryDy=0;" edge="1" parent="1" source="lpQGn5M653DhICiuYvtT-51" target="a998x2-pHR5n2TYyz1GJ-16">
          <mxGeometry relative="1" as="geometry">
            <Array as="points">
              <mxPoint x="750" y="585" />
              <mxPoint x="750" y="130" />
            </Array>
          </mxGeometry>
        </mxCell>
        <mxCell id="lpQGn5M653DhICiuYvtT-56" value="__proto__" style="edgeLabel;html=1;align=center;verticalAlign=middle;resizable=0;points=[];" vertex="1" connectable="0" parent="lpQGn5M653DhICiuYvtT-55">
          <mxGeometry x="-0.8993" y="-1" relative="1" as="geometry">
            <mxPoint x="4" y="-6" as="offset" />
          </mxGeometry>
        </mxCell>
        <mxCell id="lpQGn5M653DhICiuYvtT-59" style="edgeStyle=orthogonalEdgeStyle;rounded=0;orthogonalLoop=1;jettySize=auto;html=1;exitX=0;exitY=1;exitDx=0;exitDy=0;entryX=0;entryY=0;entryDx=0;entryDy=0;" edge="1" parent="1" source="lpQGn5M653DhICiuYvtT-51" target="lpQGn5M653DhICiuYvtT-58">
          <mxGeometry relative="1" as="geometry" />
        </mxCell>
        <mxCell id="lpQGn5M653DhICiuYvtT-61" value="prototype" style="edgeLabel;html=1;align=center;verticalAlign=middle;resizable=0;points=[];" vertex="1" connectable="0" parent="lpQGn5M653DhICiuYvtT-59">
          <mxGeometry x="-0.4918" y="-3" relative="1" as="geometry">
            <mxPoint as="offset" />
          </mxGeometry>
        </mxCell>
        <mxCell id="lpQGn5M653DhICiuYvtT-51" value="fn()实例&lt;br&gt;fn = Function()&lt;br&gt;或&lt;br&gt;new Funtion()" style="ellipse;whiteSpace=wrap;html=1;aspect=fixed;" vertex="1" parent="1">
          <mxGeometry x="540" y="545" width="80" height="80" as="geometry" />
        </mxCell>
        <mxCell id="lpQGn5M653DhICiuYvtT-60" style="edgeStyle=orthogonalEdgeStyle;rounded=0;orthogonalLoop=1;jettySize=auto;html=1;exitX=1;exitY=0;exitDx=0;exitDy=0;entryX=1;entryY=1;entryDx=0;entryDy=0;" edge="1" parent="1" source="lpQGn5M653DhICiuYvtT-58" target="lpQGn5M653DhICiuYvtT-51">
          <mxGeometry relative="1" as="geometry" />
        </mxCell>
        <mxCell id="lpQGn5M653DhICiuYvtT-62" value="constructor" style="edgeLabel;html=1;align=center;verticalAlign=middle;resizable=0;points=[];" vertex="1" connectable="0" parent="lpQGn5M653DhICiuYvtT-60">
          <mxGeometry x="-0.4783" y="1" relative="1" as="geometry">
            <mxPoint as="offset" />
          </mxGeometry>
        </mxCell>
        <mxCell id="lpQGn5M653DhICiuYvtT-65" style="edgeStyle=orthogonalEdgeStyle;rounded=0;orthogonalLoop=1;jettySize=auto;html=1;exitX=1;exitY=0.5;exitDx=0;exitDy=0;entryX=0.557;entryY=1;entryDx=0;entryDy=0;entryPerimeter=0;" edge="1" parent="1" source="lpQGn5M653DhICiuYvtT-58" target="lpQGn5M653DhICiuYvtT-64">
          <mxGeometry relative="1" as="geometry" />
        </mxCell>
        <mxCell id="lpQGn5M653DhICiuYvtT-66" value="prototype" style="edgeLabel;html=1;align=center;verticalAlign=middle;resizable=0;points=[];" vertex="1" connectable="0" parent="lpQGn5M653DhICiuYvtT-65">
          <mxGeometry x="-0.5683" y="4" relative="1" as="geometry">
            <mxPoint x="20" as="offset" />
          </mxGeometry>
        </mxCell>
        <mxCell id="lpQGn5M653DhICiuYvtT-71" style="edgeStyle=orthogonalEdgeStyle;rounded=0;orthogonalLoop=1;jettySize=auto;html=1;exitX=0;exitY=0.5;exitDx=0;exitDy=0;" edge="1" parent="1" source="lpQGn5M653DhICiuYvtT-58">
          <mxGeometry relative="1" as="geometry">
            <mxPoint x="70" y="580" as="targetPoint" />
          </mxGeometry>
        </mxCell>
        <mxCell id="lpQGn5M653DhICiuYvtT-72" value="__proto__" style="edgeLabel;html=1;align=center;verticalAlign=middle;resizable=0;points=[];" vertex="1" connectable="0" parent="lpQGn5M653DhICiuYvtT-71">
          <mxGeometry x="-0.8418" y="2" relative="1" as="geometry">
            <mxPoint x="-7" y="-2" as="offset" />
          </mxGeometry>
        </mxCell>
        <mxCell id="lpQGn5M653DhICiuYvtT-58" value="某个空对象实例" style="ellipse;whiteSpace=wrap;html=1;aspect=fixed;" vertex="1" parent="1">
          <mxGeometry x="540" y="750" width="80" height="80" as="geometry" />
        </mxCell>
        <mxCell id="lpQGn5M653DhICiuYvtT-64" value="undefined" style="text;html=1;align=center;verticalAlign=middle;resizable=0;points=[];autosize=1;strokeColor=none;" vertex="1" parent="1">
          <mxGeometry x="680" y="730" width="70" height="20" as="geometry" />
        </mxCell>
      </root>
    </mxGraphModel>
  </diagram>
</mxfile>
